<svg id="Line" height="512" viewBox="0 0 512 512" width="512" xmlns="http://www.w3.org/2000/svg"><g><path d="m144.042 167.583c-.553-10.57 4.295-21.183 12.967-28.391a35.8 35.8 0 0 1 20.389-8.349 7.929 7.929 0 0 0 .826-.1c12.207-2.166 28.312-2.215 46.57-.142a8 8 0 0 0 6.637-13.527c-10.258-10.546-18.073-20.479-23.228-29.524a7.962 7.962 0 0 0 -.447-.7 35.82 35.82 0 0 1 -6.613-21.018c0-18.695 13.763-33.9 30.681-33.9a28.568 28.568 0 0 1 18.93 7.232 8 8 0 0 0 10.492 0 28.568 28.568 0 0 1 18.93-7.232c16.918 0 30.681 15.21 30.681 33.905a35.82 35.82 0 0 1 -6.613 21.018 7.962 7.962 0 0 0 -.447.7c-5.155 9.045-12.97 18.978-23.228 29.524a8 8 0 0 0 6.637 13.527c18.258-2.073 34.361-2.023 46.57.142a7.929 7.929 0 0 0 .826.1 35.8 35.8 0 0 1 20.388 8.348c.933.775 1.831 1.6 2.673 2.445l11.354-11.273c-1.2-1.206-2.475-2.375-3.8-3.475a51.746 51.746 0 0 0 -29.049-11.972 151.429 151.429 0 0 0 -30.731-1.736 136.436 136.436 0 0 0 12.063-17.363 51.744 51.744 0 0 0 9.361-29.992c0-27.518-20.941-49.9-46.681-49.9a44.6 44.6 0 0 0 -24.18 7.204 44.6 44.6 0 0 0 -24.176-7.209c-25.74 0-46.681 22.387-46.681 49.905a51.738 51.738 0 0 0 9.362 29.992 136.32 136.32 0 0 0 12.055 17.358 151.568 151.568 0 0 0 -30.73 1.736 51.746 51.746 0 0 0 -29.05 11.972c-12.534 10.419-19.531 25.944-18.717 41.529z"/><path d="m272.924 205.044a7.852 7.852 0 0 0 -.252-.793c-1.142-3.038-2.2-6.388-3.147-9.958a13.993 13.993 0 0 0 -27.05 0c-.947 3.569-2 6.919-3.147 9.957a7.852 7.852 0 0 0 -.252.793 36.468 36.468 0 0 1 -38.221 26.769l-1.71 15.909a48.387 48.387 0 0 0 5.162.276 52.047 52.047 0 0 0 33.06-12.129 53.056 53.056 0 0 0 10.633-11.922v72.054h16v-72.054a53.741 53.741 0 0 0 20.343 18.354l7.314-14.229a37.536 37.536 0 0 1 -6.8-4.5 35.815 35.815 0 0 1 -11.933-18.527z"/><path d="m248 312h16v184h-16z"/><path d="m272 56h16v16h-16z"/><path d="m496 288v-4a28.032 28.032 0 0 0 -28-28h-17.6a182.459 182.459 0 0 0 -13.879-38.475 28.012 28.012 0 0 0 -23.837-41.517 40.037 40.037 0 0 0 -73.376 0 28.012 28.012 0 0 0 -23.837 41.517c-12.752 25.682-19.471 55.44-19.471 86.475 0 33.208 7.692 64.956 22.244 91.812a8 8 0 0 0 7.034 4.188h42.722v96h16v-96h42.722a8 8 0 0 0 7.034-4.188 180.656 180.656 0 0 0 16.644-43.812h7.6a38.043 38.043 0 0 0 38-38v-10h-16v10a22.025 22.025 0 0 1 -22 22h-4.44a211.056 211.056 0 0 0 0-64h14.44a12.013 12.013 0 0 1 12 12v4zm-62.093 64h-115.814a192.116 192.116 0 0 1 0-96h73.907v-16h-68.823a159.556 159.556 0 0 1 6.951-16h91.744a159.556 159.556 0 0 1 6.951 16h-20.823v16h25.907a192.116 192.116 0 0 1 0 96zm-93.907-160a12.077 12.077 0 0 1 2.923.357 8 8 0 0 0 9.723-5.917 24.009 24.009 0 0 1 46.708 0 8 8 0 0 0 9.723 5.917 12.016 12.016 0 0 1 14.923 11.643 11.949 11.949 0 0 1 -.68 4h-94.64a12.015 12.015 0 0 1 11.32-16zm-9.872 192a159.556 159.556 0 0 1 -6.951-16h105.646a159.556 159.556 0 0 1 -6.951 16z"/><path d="m336 280h16v16h-16z"/><path d="m392 312h16v16h-16z"/><path d="m216 344h-25.754l-3.578-14.31a193.223 193.223 0 0 1 -2-84.221l6.728-33.639a12.15 12.15 0 0 0 .604-3.83c0-22.843-59.977-24-72-24s-72 1.157-72 24a12.15 12.15 0 0 0 .607 3.83l6.728 33.639a193.308 193.308 0 0 1 2.85 19.3l15.925-1.53a208.62 208.62 0 0 0 -3.086-20.9l-3.334-16.682c18.623 5.892 44.81 6.343 52.31 6.343s33.687-.451 52.31-6.343l-3.334 16.674a209.43 209.43 0 0 0 -2.008 69.669h-14.968v-4a28.032 28.032 0 0 0 -28-28h-8a28.032 28.032 0 0 0 -28 28v4h-14.951a207.963 207.963 0 0 0 1.989-32.125l-16 .25a192.047 192.047 0 0 1 -5.708 49.565l-3.576 14.31h-25.754a8 8 0 0 0 -8 8 40.045 40.045 0 0 0 40 40h56v104h16v-104h56a40.045 40.045 0 0 0 40-40 8 8 0 0 0 -8-8zm-149.82-136c6.895-3.438 25.482-8 53.82-8s46.925 4.562 53.82 8c-6.895 3.438-25.482 8-53.82 8s-46.925-4.562-53.82-8zm103.657 120q.617 2.8 1.309 5.571l2.608 10.429h-24.454a27.836 27.836 0 0 0 2.7-12v-4zm-65.837-20a12.013 12.013 0 0 1 12-12h8a12.013 12.013 0 0 1 12 12v4h-16v16h16v4a12.013 12.013 0 0 1 -12 12h-8a12.013 12.013 0 0 1 -12-12zm-35.146 25.57q.693-2.776 1.311-5.57h17.835v4a27.836 27.836 0 0 0 2.7 12h-24.454zm115.146 42.43h-128a24.042 24.042 0 0 1 -22.629-16h173.258a24.042 24.042 0 0 1 -22.629 16z"/><path d="m136 248h16v16h-16z"/></g></svg>