<?xml version="1.0" encoding="UTF-8"?>
<svg xmlns="http://www.w3.org/2000/svg" id="Line" width="512" height="512" viewBox="0 0 512 512"><g><rect x="432" y="72" width="16" height="16"/><rect x="280" y="96" width="16" height="16"/><rect x="128" y="72" width="16" height="16"/><path d="M490.394,403.768c-18.623-5.839-37.627-11.034-56.606-15.475,1.774-10.182,3.592-20.666,5.47-31.538a8,8,0,0,0-6.142-9.17q-8.551-1.906-17.116-3.627V262.629a24,24,0,0,0,20.78-42.935,148.436,148.436,0,0,0,26.449-25.964C484.056,167.886,496,138.1,496,112c0-28.453-8.872-52.745-25.657-70.248C454.417,25.146,432.277,16,408,16c-32.394,0-60.715,16.515-75.761,44.178l14.055,7.644C358.677,45.057,381.168,32,408,32c19.876,0,37.915,7.4,50.8,20.827C472.667,67.292,480,87.754,480,112c0,22.509-10.653,48.639-29.229,71.691C433.86,204.676,416.113,216,408,216c-3.907,0-11.885-3.085-22.554-11.746A147.706,147.706,0,0,1,356.4,171.6L343.04,180.4c10.711,16.248,23.67,30.073,36.148,39.311A24,24,0,0,0,400,262.629V340.9a809.464,809.464,0,0,0-136-12.929V286.629a24,24,0,0,0,20.78-42.935,148.436,148.436,0,0,0,26.449-25.964C332.056,191.886,344,162.1,344,136c0-52.814-31.854-91.233-79.266-95.6l-1.468,15.933c18.419,1.7,34.271,9.663,45.844,23.038C321.468,93.65,328,113.232,328,136c0,22.509-10.653,48.639-29.229,71.691C281.86,228.676,264.113,240,256,240s-25.86-11.324-42.771-32.309C194.653,184.639,184,158.509,184,136c0-22.768,6.532-42.35,18.89-56.631,11.573-13.375,27.425-21.341,45.844-23.038L247.266,40.4C199.854,44.767,168,83.186,168,136c0,26.1,11.944,55.886,32.771,81.73a148.436,148.436,0,0,0,26.449,25.964A24,24,0,0,0,248,286.629v41.346A809.454,809.454,0,0,0,112,340.9V262.629a24,24,0,0,0,20.812-42.915c12.478-9.238,25.437-23.063,36.149-39.31L155.6,171.6C138.35,197.764,114.56,216,104,216c-8.113,0-25.86-11.324-42.771-32.309C42.653,160.639,32,134.509,32,112c0-24.246,7.333-44.708,21.205-59.173C66.085,39.4,84.124,32,104,32c26.832,0,49.323,13.057,61.706,35.822l14.055-7.644C164.715,32.515,136.394,16,104,16c-24.277,0-46.417,9.146-62.343,25.752C24.872,59.255,16,83.547,16,112c0,26.1,11.944,55.886,32.771,81.73A148.436,148.436,0,0,0,75.22,219.694,24,24,0,0,0,96,262.629v81.329q-8.562,1.72-17.114,3.627a8,8,0,0,0-6.143,9.168q2.678,15.523,5.469,31.54c-18.975,4.441-37.978,9.635-56.606,15.475a8,8,0,0,0-3.077,13.47c9.7,9.094,19.289,18.462,28.552,27.9C42.842,458.7,38.856,472.4,35.215,485.92a8,8,0,0,0,10.122,9.712,710.965,710.965,0,0,1,93.2-22.492v-.031c.218-.018.437-.046.654-.083,4.761-.808,9.657-1.585,14.55-2.31a8,8,0,0,0,6.772-8.853q-1.869-15.808-3.722-31.618a729.038,729.038,0,0,1,162.517-4.034l1.39-15.94A746.947,746.947,0,0,0,100.679,423.8c-3.725-21.128-7.368-41.991-10.866-62.219a791.663,791.663,0,0,1,332.374,0c-3.818,22.058-7.4,42.549-10.864,62.22-24.627-5.216-49.632-9.227-74.455-11.938l-1.736,15.906q10.026,1.095,20.082,2.477-1.853,15.81-3.724,31.618a8,8,0,0,0,6.773,8.855c4.261.631,8.537,1.3,12.737,2v0a710.971,710.971,0,0,1,95.665,22.909,8,8,0,0,0,10.123-9.71c-3.61-13.425-7.6-27.124-11.868-40.786,9.32-9.494,18.907-18.863,28.55-27.9a8,8,0,0,0-3.076-13.471ZM424,248a8.009,8.009,0,0,1-8-8v-8h8a8,8,0,0,1,0,16Zm-32,0a8,8,0,0,1,0-16h8v8A8.009,8.009,0,0,1,392,248Zm-272,0a8.009,8.009,0,0,1-8-8v-8h8a8,8,0,0,1,0,16Zm-32,0a8,8,0,0,1,0-16h8v8A8.009,8.009,0,0,1,88,248ZM61.888,437.4c-7.292-7.5-14.8-14.982-22.425-22.333,13.738-4.042,27.629-7.718,41.506-10.983q2.667,15.229,5.4,30.695a8,8,0,0,0,3.406,5.241h0c9.761,6.583,19.426,13.445,28.881,20.5-21.556,4.222-43,9.441-64.129,15.612,2.916-10.253,6.013-20.544,9.249-30.737A8,8,0,0,0,61.888,437.4Zm81.826,18.671q-1.861.3-3.71.6c-8.46-6.578-17.131-13.025-25.929-19.281q13.412-2.649,26.879-4.8Q142.331,444.331,143.714,456.068ZM272,272a8.009,8.009,0,0,1-8-8v-8h8a8,8,0,0,1,0,16Zm-32,0a8,8,0,0,1,0-16h8v8A8.009,8.009,0,0,1,240,272ZM371.048,432.594q13.47,2.148,26.876,4.794c-8.8,6.256-17.471,12.7-25.927,19.28q-1.848-.3-3.71-.6Q369.673,444.332,371.048,432.594Zm79.065,4.8a8,8,0,0,0-1.887,8c3.254,10.252,6.351,20.543,9.252,30.737-21.131-6.172-42.575-11.391-64.133-15.612,9.438-7.045,19.091-13.9,28.841-20.473l0,0,.018-.012.018-.012h0a8.009,8.009,0,0,0,3.405-5.24c1.77-10.008,3.564-20.206,5.4-30.695,13.879,3.265,27.769,6.94,41.5,10.981C464.949,422.379,457.441,429.856,450.113,437.4Z"/></g></svg>
