<?xml version="1.0" encoding="UTF-8"?>
<svg xmlns="http://www.w3.org/2000/svg" id="Line" width="512" height="512" viewBox="0 0 512 512"><g><path d="M201.209,212.2a24.826,24.826,0,0,0,5.868,10.851c10.142,11.012,28.177,12.067,41.061,2.4a30.06,30.06,0,0,0,7.862-8.66,30.094,30.094,0,0,0,7.863,8.661,32.9,32.9,0,0,0,19.7,6.606,28.822,28.822,0,0,0,21.361-9.01,24.826,24.826,0,0,0,5.868-10.851,27.426,27.426,0,0,0,10.616-7.047,24.561,24.561,0,0,0,6.487-19.095,28.479,28.479,0,0,0-11.571-19.934,32.733,32.733,0,0,0-17.193-6.455,66.417,66.417,0,0,0-8.589-.707q.624-.911,1.2-1.811a27.6,27.6,0,0,0,5.781-16.977A28.434,28.434,0,0,0,268.894,112,29.124,29.124,0,0,0,256,115.021,29.124,29.124,0,0,0,243.106,112a28.434,28.434,0,0,0-28.629,28.169,27.6,27.6,0,0,0,5.781,16.977q.576.9,1.2,1.811a66.4,66.4,0,0,0-8.589.707,32.733,32.733,0,0,0-17.193,6.455,28.479,28.479,0,0,0-11.571,19.934,24.561,24.561,0,0,0,6.487,19.1A27.43,27.43,0,0,0,201.209,212.2Zm-1.17-24.681a12.5,12.5,0,0,1,5.239-8.6,17,17,0,0,1,9.013-3.314c.25-.017.5-.044.747-.084,7.1-1.135,15.74-.407,23.984.438a8,8,0,0,0,6.257-13.822,74.516,74.516,0,0,1-11.713-13.878,7.534,7.534,0,0,0-.5-.7,11.772,11.772,0,0,1-2.589-7.385A12.42,12.42,0,0,1,243.106,128a12.761,12.761,0,0,1,7.958,2.721,8.009,8.009,0,0,0,9.872,0A12.761,12.761,0,0,1,268.894,128a12.42,12.42,0,0,1,12.629,12.169,11.772,11.772,0,0,1-2.589,7.385,7.534,7.534,0,0,0-.5.7,74.516,74.516,0,0,1-11.713,13.878,8,8,0,0,0,6.257,13.822c8.245-.845,16.888-1.574,23.984-.438.247.04.5.067.747.084a17,17,0,0,1,9.013,3.314,12.5,12.5,0,0,1,5.239,8.6,8.633,8.633,0,0,1-2.323,6.795,12.279,12.279,0,0,1-7.3,3.627,8,8,0,0,0-6.829,8.106,8.646,8.646,0,0,1-2.36,6.164c-4.491,4.877-13.507,5.082-19.687.446a13.064,13.064,0,0,1-4.884-6.729,8.259,8.259,0,0,0-.3-.847,42.627,42.627,0,0,1-1.519-4.344,11.29,11.29,0,0,0-21.531,0,42.454,42.454,0,0,1-1.518,4.343,8.259,8.259,0,0,0-.3.847,13.061,13.061,0,0,1-4.883,6.728c-6.178,4.636-15.2,4.435-19.688-.445a8.646,8.646,0,0,1-2.36-6.164,8,8,0,0,0-6.829-8.106,12.279,12.279,0,0,1-7.3-3.627A8.633,8.633,0,0,1,200.039,187.514Z"/><rect x="152" y="232" width="32" height="16"/><rect x="328" y="232" width="32" height="16"/><path d="M392,416a24,24,0,1,0,24,24A24.028,24.028,0,0,0,392,416Zm0,32a8,8,0,1,1,8-8A8.009,8.009,0,0,1,392,448Z"/><path d="M120,416a24,24,0,1,0,24,24A24.028,24.028,0,0,0,120,416Zm0,32a8,8,0,1,1,8-8A8.009,8.009,0,0,1,120,448Z"/><rect x="88" y="320" width="16" height="16"/><rect x="408" y="320" width="16" height="16"/><rect x="240" y="360" width="32" height="16"/><path d="M476.939,467.441C453.464,449.017,440,424.436,440,400c0-12.2,3.3-24.355,9.812-36.128a7.966,7.966,0,0,0,.923-2.776,47.917,47.917,0,0,0,.589-65.562,207.869,207.869,0,0,0-60.271-229.61q-.959-.821-1.925-1.627c-2.712-2.265-5.511-4.484-8.319-6.6l-9.618,12.787c2.593,1.95,5.177,4,7.684,6.092q.889.741,1.773,1.5a191.9,191.9,0,0,1,57.313,207.246,47.631,47.631,0,0,0-15.249-4.857A174.8,174.8,0,0,0,432,224c0-97.047-78.953-176-176-176S80,126.953,80,224a174.754,174.754,0,0,0,9.288,56.468,47.613,47.613,0,0,0-15.246,4.856A190.615,190.615,0,0,1,67.857,262.4L52.18,265.6a206.92,206.92,0,0,0,8.5,29.937,47.917,47.917,0,0,0,.589,65.562,7.966,7.966,0,0,0,.923,2.776C68.7,375.645,72,387.8,72,400c0,24.436-13.464,49.017-36.939,67.441A8,8,0,0,0,32,473.734V488a8,8,0,0,0,8,8h86.969a8,8,0,0,0,5.674-2.36c18.713-18.829,55.787-32.566,97.834-36.475L232.04,472.8A8,8,0,0,0,240,480h32a8,8,0,0,0,7.96-7.2l1.563-15.631c42.047,3.909,79.121,17.646,97.834,36.475a8,8,0,0,0,5.674,2.36H472a8,8,0,0,0,8-8V473.734A8,8,0,0,0,476.939,467.441ZM384,328a32,32,0,1,1,32,32A32.036,32.036,0,0,1,384,328ZM99.215,192H168V176H103.354C123.79,111.154,184.491,64,256,64s132.21,47.154,152.646,112H344v16h68.785a160.384,160.384,0,0,1-6.9,88H304v16h76.253A47.983,47.983,0,0,0,368.9,337.267a159.251,159.251,0,0,1-65.729,39.648,48.027,48.027,0,0,0-26.9-52.423l9.2-27.6a31.065,31.065,0,1,0-58.942,0l9.2,27.605a48.03,48.03,0,0,0-26.9,52.42A159.4,159.4,0,0,1,143.1,337.266,47.981,47.981,0,0,0,131.747,296H208V280H106.111a160.394,160.394,0,0,1-6.9-88ZM256,400a32,32,0,1,1,32-32A32.036,32.036,0,0,1,256,400Zm-29.872,13.676a192.341,192.341,0,0,1-99.966-48.363,48.345,48.345,0,0,0,10.587-11.969,175.005,175.005,0,0,0,79.989,42.24,48.417,48.417,0,0,0,8.5,9.239ZM64,328a32,32,0,1,1,32,32A32.036,32.036,0,0,1,64,328Zm177.709-36.173a15.064,15.064,0,1,1,28.582,0l-9.471,28.413Q258.443,320,256,320t-4.82.241ZM123.74,480H48v-2.447C73.472,456.338,88,428.267,88,400a85.711,85.711,0,0,0-3.915-25.5,48.107,48.107,0,0,0,27.377-1.058A208.364,208.364,0,0,0,227.769,430.09l1.115,11.15C184.4,445.365,145.777,459.58,123.74,480Zm123.5-16-5-50.01a48.111,48.111,0,0,0,27.522,0l-5,50.01ZM464,480H388.26c-22.037-20.42-60.655-34.635-105.144-38.76l1.115-11.15a206.612,206.612,0,0,0,46.658-12.031l-5.778-14.92a190.588,190.588,0,0,1-39.239,10.54l.885-8.856a48.344,48.344,0,0,0,8.5-9.238,174.837,174.837,0,0,0,79.99-42.24,48.4,48.4,0,0,0,10.591,11.972A192.188,192.188,0,0,1,340.468,396.4l7.064,14.356a208.273,208.273,0,0,0,53.007-37.313,48.114,48.114,0,0,0,27.376,1.057A85.711,85.711,0,0,0,424,400c0,28.267,14.528,56.338,40,77.553Z"/><path d="M65.375,247.046A194.012,194.012,0,0,1,64,224C64,118.131,150.131,32,256,32a191.314,191.314,0,0,1,99.828,28.049L364.172,46.4A207.318,207.318,0,0,0,256,16C141.309,16,48,109.309,48,224a210.226,210.226,0,0,0,1.488,24.954Z"/></g></svg>
