<?xml version="1.0" encoding="UTF-8"?>
<svg xmlns="http://www.w3.org/2000/svg" id="Line" width="512" height="512" viewBox="0 0 512 512"><g><path d="M398.638,137.41l.955-17.662A28.06,28.06,0,0,0,424,92.265V92c0-21.011-12.562-40.492-35.37-54.853C366.972,23.51,338.336,16,308,16c-25.269,0-49.772,5.333-69.748,15.1a56.009,56.009,0,0,0-93.291,30.514,87.987,87.987,0,0,0-39.2,56.794l15.68,3.184a72.014,72.014,0,0,1,34.844-48.124,8,8,0,0,0,3.974-6.041A40,40,0,0,1,230.52,46.143a8,8,0,0,0,9.982,1.82C259.053,37.669,283.024,32,308,32c27.359,0,52.966,6.636,72.105,18.687C398.093,62.013,408,76.685,408,92v.171A12.069,12.069,0,0,1,395.807,104H268.337a8,8,0,0,0-7.632,10.4A71.992,71.992,0,0,1,264,136V248a16,16,0,0,1-32,0V209.343a8,8,0,0,0-11.2-7.33A72.043,72.043,0,0,1,120,136H104a88.069,88.069,0,0,0,45.448,77.011l2.347,43.421,15.977-.864-1.921-35.534a88.426,88.426,0,0,0,50.149.657V248a32,32,0,0,0,64,0V192h99.664l-6.031,111.568,15.977.864,5.956-110.193A42.05,42.05,0,0,1,424,234v72a62.281,62.281,0,0,1-37.555,56.978l2.3-42.546-15.976-.864-4.757,88a7.99,7.99,0,0,0,.227,2.372L373.754,432H304v16h75.056L392,473.889V480H280v16H400a8,8,0,0,0,8-8V472a7.994,7.994,0,0,0-.845-3.578l-15.606-31.213-4-15.993A118.255,118.255,0,0,0,480,306V234A97.864,97.864,0,0,0,398.638,137.41ZM280,176V136a88.46,88.46,0,0,0-1.453-16H383.556l-3.027,56ZM464,306a102.217,102.217,0,0,1-79.858,99.583l1.362-25.2A78.326,78.326,0,0,0,440,306V234a58.058,58.058,0,0,0-43.546-56.18l1.314-24.305A81.885,81.885,0,0,1,464,234Z"/><path d="M172.184,101.238l-7.951-13.885A56.01,56.01,0,0,0,192,192V176a40.01,40.01,0,0,1-19.816-74.762Z"/><rect x="304" y="224" width="16" height="16"/><rect x="344" y="264" width="16" height="16"/><rect x="288" y="304" width="16" height="16"/><rect x="328" y="344" width="16" height="16"/><path d="M282.886,425.438a45.513,45.513,0,0,0,5.795-56.722,49.41,49.41,0,0,0-61.237-18.293q-1.683.566-3.407,1.21.871-1.341,1.675-2.668a48.254,48.254,0,0,0,9.515-28.978c0-26.46-21.043-47.987-46.909-47.987A46.287,46.287,0,0,0,164,278.952,46.287,46.287,0,0,0,139.682,272c-25.866,0-46.909,21.527-46.909,47.987a48.254,48.254,0,0,0,9.515,28.978q.8,1.326,1.675,2.668-1.722-.643-3.407-1.21a48.92,48.92,0,0,0-30.447-3C52.1,351.361,38.069,364.6,33.5,381.963l15.473,4.074a32.1,32.1,0,0,1,24.558-22.985,33.02,33.02,0,0,1,20.823,2.124,7.871,7.871,0,0,0,.785.306c11.947,3.955,26.487,11.906,42.046,22.994A8,8,0,0,0,147.162,376c-14.113-12.634-24.961-24.955-31.373-35.629a7.731,7.731,0,0,0-.475-.7,32.376,32.376,0,0,1-6.541-19.681c0-17.637,13.866-31.987,30.909-31.987a29.926,29.926,0,0,1,19.231,6.945,8,8,0,0,0,10.174,0A29.926,29.926,0,0,1,188.318,288c17.043,0,30.909,14.35,30.909,31.987a32.376,32.376,0,0,1-6.541,19.681,7.731,7.731,0,0,0-.475.7c-6.412,10.674-17.26,23-31.373,35.629a8,8,0,0,0,9.979,12.476c15.558-11.087,30.1-19.038,42.046-22.994a7.871,7.871,0,0,0,.785-.306,33.011,33.011,0,0,1,20.824-2.124A32.625,32.625,0,0,1,275.2,377.333a29.573,29.573,0,0,1-6.833,39.658,8,8,0,0,0-2.205,10,29.355,29.355,0,0,1,2.684,20.078c-3.661,16.528-20.77,26.882-38.138,23.084a32.828,32.828,0,0,1-17.984-10.6,8.078,8.078,0,0,0-.588-.611c-10.48-9.8-19.943-22.49-28.93-38.8a8,8,0,0,0-14.957,2.965C165.694,445.8,170.89,461.891,179.276,480H148.758c7.492-15.964,13.854-33.247,11.192-56.895a8,8,0,0,0-14.957-2.965c-8.722,15.833-18.522,28.888-29.129,38.8a8.078,8.078,0,0,0-.588.611,32.829,32.829,0,0,1-17.983,10.6c-17.372,3.8-34.478-6.557-38.139-23.084A29.355,29.355,0,0,1,61.838,427a8,8,0,0,0-2.2-10A29.54,29.54,0,0,1,48.7,399.868l-15.621,3.46a45.806,45.806,0,0,0,12.036,22.11,45.645,45.645,0,0,0-1.581,25.1c5.563,25.118,31.208,40.934,57.179,35.254a48.713,48.713,0,0,0,26.379-15.439,144.852,144.852,0,0,0,14.574-16.036c-2.46,8.452-6.349,16.858-11.2,26.782l-1.657,3.394A8,8,0,0,0,136,496h56a8,8,0,0,0,7.188-11.511l-1.657-3.394c-4.708-9.639-8.583-18.049-11.039-26.651a140.237,140.237,0,0,0,14.417,15.9,48.724,48.724,0,0,0,26.379,15.44,49.805,49.805,0,0,0,10.64,1.155c22,0,41.74-14.745,46.539-36.41A45.645,45.645,0,0,0,282.886,425.438Z"/></g></svg>
